<mxfile host="app.diagrams.net" modified="2023-10-25T13:01:06.269Z" agent="Mozilla/5.0 (Windows NT 10.0; Win64; x64) AppleWebKit/537.36 (KHTML, like Gecko) Chrome/117.0.0.0 Safari/537.36" version="22.0.6" etag="J5sMJIgFED7Z_Sv3O9eR" type="github">
  <diagram name="第 1 页" id="Cx7ku-hFb-Zg2QIoqDPu">
    <mxGraphModel>
      <root>
        <mxCell id="0" />
        <mxCell id="1" parent="0" />
      </root>
    </mxGraphModel>
  </diagram>
</mxfile>
